<?xml version="1.0" encoding="utf-8"?>
<!-- Generator: Adobe Illustrator 23.0.4, SVG Export Plug-In . SVG Version: 6.00 Build 0)  -->
<svg version="1.1" id="Livello_1" focusable="false"
	 xmlns="http://www.w3.org/2000/svg" xmlns:xlink="http://www.w3.org/1999/xlink" x="0px" y="0px" viewBox="0 0 576 512"
	 style="enable-background:new 0 0 576 512;" xml:space="preserve">
<style type="text/css">
	.st0{fill:#444444;}
</style>
<path class="st0" d="M548.1,171.5L548.1,171.5L402,150.2L336.7,17.8c-11.7-23.6-45.6-23.9-57.4,0L214,150.2L67.9,171.5
	c-26.2,3.8-36.7,36.1-17.7,54.6l105.7,103l-25,145.5c-4.5,26.3,23.2,46,46.4,33.7L308,439.6l130.7,68.7
	c23.2,12.2,50.9-7.4,46.4-33.7l-25-145.5l105.7-103C584.8,207.6,574.3,175.3,548.1,171.5z M423.4,320.1l27.2,158.8L308,404
	l-142.6,74.9l27.2-158.8L77.1,207.6l159.5-23.2L308,39.9l71.4,144.6l159.5,23.2L423.4,320.1z"/>
</svg>
